<svg width="21" height="21" viewBox="0 0 21 21" fill="none" xmlns="http://www.w3.org/2000/svg">
    <g clip-path="url(#clip0_52_3708)">
        <path d="M20.096 20.2756C19.946 20.4256 19.7543 20.4923 19.5626 20.4923C19.371 20.4923 19.1793 20.4173 19.0293 20.2756L15.421 16.6673C15.0376 16.9923 14.621 17.2839 14.1793 17.5506C12.821 18.3589 11.246 18.8256 9.55429 18.8256C4.55429 18.8256 0.47929 14.7506 0.47929 9.74227C0.47929 4.73393 4.55429 0.658936 9.56262 0.658936C14.571 0.658936 18.646 4.73393 18.646 9.74227C18.646 11.4339 18.171 13.0089 17.371 14.3673L16.271 13.2673C16.8293 12.2089 17.146 11.0173 17.146 9.74227C17.146 5.55894 13.746 2.15894 9.56262 2.15894C5.37929 2.15894 1.97929 5.55894 1.97929 9.74227C1.97929 13.9256 5.37929 17.3256 9.56262 17.3256C10.8376 17.3256 12.0376 17.0089 13.0876 16.4506C13.5376 16.2089 13.971 15.9256 14.3626 15.6089C14.746 15.2923 15.1043 14.9339 15.421 14.5506L16.4793 15.6089L20.0876 19.2173C20.3876 19.5006 20.3876 19.9839 20.096 20.2756ZM5.31262 9.74227C5.31262 7.4006 7.22096 5.49227 9.56262 5.49227C9.97929 5.49227 10.3126 5.15894 10.3126 4.74227C10.3126 4.3256 9.97929 3.99227 9.56262 3.99227C6.39596 3.99227 3.81262 6.5756 3.81262 9.74227C3.81262 10.1589 4.14596 10.4923 4.56262 10.4923C4.97929 10.4923 5.31262 10.1589 5.31262 9.74227Z" fill="white" />
    </g>
    <defs>
        <clipPath id="clip0_52_3708">
            <rect width="20" height="20" fill="white" transform="translate(0.395874 0.575684)" />
        </clipPath>
    </defs>
</svg>
